<?xml version="1.0" encoding="iso-8859-1"?>
<!-- Generator: Adobe Illustrator 19.0.0, SVG Export Plug-In . SVG Version: 6.00 Build 0)  -->
<svg version="1.1" id="Layer_1" xmlns="http://www.w3.org/2000/svg" xmlns:xlink="http://www.w3.org/1999/xlink" x="0px" y="0px"
	 viewBox="0 0 512 512" style="enable-background:new 0 0 512 512;" xml:space="preserve">
<g>
	<g>
		<path d="M480,0H32C14.352,0,0,14.352,0,32v448c0,17.648,14.352,32,32,32h448c17.648,0,32-14.352,32-32V32
			C512,14.352,497.648,0,480,0z M480,480l-448,0.016V32h448V480z"/>
	</g>
</g>
<g>
	<g>
		<polygon points="363.312,171.312 340.688,148.688 256,233.376 171.312,148.688 148.688,171.312 233.376,256 148.688,340.688 
			171.312,363.312 256,278.624 340.688,363.312 363.312,340.688 278.624,256 		"/>
	</g>
</g>
<g>
</g>
<g>
</g>
<g>
</g>
<g>
</g>
<g>
</g>
<g>
</g>
<g>
</g>
<g>
</g>
<g>
</g>
<g>
</g>
<g>
</g>
<g>
</g>
<g>
</g>
<g>
</g>
<g>
</g>
</svg>
