<?xml version="1.0" ?><!DOCTYPE svg  PUBLIC '-//W3C//DTD SVG 1.0//EN'  'http://www.w3.org/TR/2001/REC-SVG-20010904/DTD/svg10.dtd'><svg enable-background="new 0 0 91.8 92.6" id="Layer_1" version="1.0" viewBox="0 0 91.8 92.6" xml:space="preserve" xmlns="http://www.w3.org/2000/svg" xmlns:xlink="http://www.w3.org/1999/xlink"><path d="M45.9,3.6c-23.5,0-42.5,19-42.5,42.5c0,23.5,19,42.5,42.5,42.5c23.5,0,42.5-19,42.5-42.5  C88.4,22.7,69.4,3.6,45.9,3.6z M72.6,58.3c0,1.2-1,2.1-2.1,2.1H21.3c-1.2,0-2.1-1-2.1-2.1v-6.4c0-1.2,1-2.1,2.1-2.1h49.2  c1.2,0,2.1,1,2.1,2.1V58.3z M72.6,40.4c0,1.2-1,2.1-2.1,2.1H21.3c-1.2,0-2.1-1-2.1-2.1V34c0-1.2,1-2.1,2.1-2.1h49.2  c1.2,0,2.1,1,2.1,2.1V40.4z" fill="#1E1E1E"/></svg>